PathFileType	4	(X/Y/Z)	./resultDataOpenSim/trcMotMarkerGrf/sub06/qtm-04-06.trc
DataRate	CameraRate	NumFrames	NumMarkers	Units	OrigDataRate	OrigDataStartFrame	OrigNumFrames
250.000000	250.000000	12	24	m	250.000000	347	555
Frame#	Time	L.Toe.Tip			R.Toe.Tip			L.Ankle.Lat			R.Ankle.Lat			L.Ankle.Med			R.Ankle.Med			L.Heel			R.Heel			L.Knee.Lat			R.Knee.Lat			L.Knee.Med			R.Knee.Med			L.Thigh.Upper			R.Thigh.Upper			L.ASIS			R.ASIS			V.Sacral			L.Acromium			R.Acromium			C7			L.Elbow			R.Elbow			L.Wrist.Lat			R.Wrist.Lat
		X1	Y1	Z1	X2	Y2	Z2	X3	Y3	Z3	X4	Y4	Z4	X5	Y5	Z5	X6	Y6	Z6	X7	Y7	Z7	X8	Y8	Z8	X9	Y9	Z9	X10	Y10	Z10	X11	Y11	Z11	X12	Y12	Z12	X13	Y13	Z13	X14	Y14	Z14	X15	Y15	Z15	X16	Y16	Z16	X17	Y17	Z17	X18	Y18	Z18	X19	Y19	Z19	X20	Y20	Z20	X21	Y21	Z21	X22	Y22	Z22	X23	Y23	Z23	X24	Y24	Z24

347	1.384	0.52170081	0.11842319	-0.053157995	0.87120713	0.035837123	0.09944429	0.50110204	0.24563392	-0.079833077	0.73892937	0.061363764	0.13924396	0.52708092	0.25289541	0.00065467456	0.74739234	0.080020746	0.049876042	0.44946901	0.29634277	-0.025987876	0.67620416	0.039221214	0.089601944	0.82764413	0.4178013	-0.13660965	0.84854074	0.43822963	0.15032471	0.83786728	0.40452176	-0.011155065	0.78913316	0.42683472	0.035047941	0.69052299	0.7914091	-0.11973786	0.73906639	0.79996621	0.22329852	0.76704513	0.83999889	-0.083009524	0.81460328	0.85409227	0.15660128	0.6079407	0.92270117	0.069794755	0.73722817	1.3275831	-0.13609421	0.76718289	1.3136263	0.22412742	0.67788799	1.3612476	0.049851828	0.67292394	1.0093414	-0.1852401	0.695637	1.0088303	0.31382737	0.84029514	0.82710492	-0.20283603	0.88009895	0.84477238	0.33299629
348	1.388	0.53726242	0.11836654	-0.054903449	0.87117504	0.035839641	0.099379053	0.51413713	0.24512712	-0.080806108	0.73888706	0.0613892	0.13928394	0.53993066	0.25244192	-0.00010684197	0.74726097	0.08015216	0.049963334	0.46143218	0.29465348	-0.026595508	0.6762304	0.039305245	0.089565082	0.83810149	0.42194632	-0.13729327	0.84840597	0.43839345	0.1507527	0.8485667	0.40871516	-0.011616081	0.78864511	0.42751953	0.035149042	0.69697818	0.7939915	-0.12023482	0.74420379	0.80136383	0.22278591	0.77293379	0.84237035	-0.082929191	0.81987091	0.85581507	0.15658698	0.61338133	0.92444858	0.069190115	0.74200364	1.3296183	-0.13633793	0.77282639	1.3157892	0.22373364	0.6830507	1.3631295	0.049729347	0.67647617	1.0117891	-0.18517255	0.70330213	1.0106223	0.31428142	0.84208661	0.82815201	-0.20388939	0.89025535	0.84889286	0.33144928
349	1.392	0.55300754	0.11813654	-0.056711986	0.87114474	0.035843295	0.099320214	0.52716821	0.24438622	-0.081784433	0.738847	0.061428549	0.13932828	0.55282439	0.25176432	-0.00089317447	0.74712525	0.080294661	0.050079589	0.47344997	0.29262721	-0.027271441	0.6762129	0.039383474	0.089559685	0.84843875	0.42600955	-0.13787226	0.8482128	0.43856831	0.15119266	0.8592879	0.4128702	-0.012099486	0.78792027	0.42825568	0.035229306	0.70337145	0.79650315	-0.12072317	0.74930017	0.8026994	0.22226024	0.77888859	0.84472815	-0.082840322	0.82513655	0.85745391	0.15656392	0.61879447	0.92613538	0.068557375	0.74675918	1.3315901	-0.13657715	0.77846065	1.3178863	0.2233295	0.68822541	1.3649351	0.04959688	0.68003552	1.0141849	-0.18511269	0.71097324	1.0123736	0.31472031	0.84386513	0.82918272	-0.20495725	0.90030196	0.85298102	0.32987316
350	1.396	0.56895061	0.11775104	-0.058564568	0.87111428	0.035846846	0.099275589	0.5402225	0.24338114	-0.082752858	0.73881512	0.061486722	0.13938138	0.56576734	0.25085274	-0.001712545	0.74700511	0.080452344	0.050205849	0.48551632	0.29028536	-0.028012496	0.676149	0.03945876	0.089602934	0.8587026	0.4299726	-0.1383298	0.84797168	0.43875145	0.15164089	0.86993048	0.41696934	-0.012580302	0.78750138	0.42886051	0.035283633	0.70962584	0.79894805	-0.12123255	0.75427806	0.80394326	0.22181879	0.78487929	0.84704072	-0.082761537	0.83039546	0.85900704	0.15653588	0.62418971	0.92776278	0.067981387	0.75148498	1.3334917	-0.13681586	0.7840878	1.3199128	0.22291695	0.69340594	1.3666762	0.049466424	0.68360884	1.0165307	-0.18504492	0.71865759	1.0140782	0.31514732	0.84564077	0.83020038	-0.20603578	0.91027476	0.85703939	0.32826221
351	1.4	0.58512285	0.11720414	-0.060459515	0.8710817	0.03584809	0.099253817	0.55335095	0.24210847	-0.083727535	0.73879433	0.061565133	0.13944492	0.57882602	0.24967368	-0.0025715858	0.7469166	0.080613399	0.050319077	0.49763321	0.28763865	-0.02880459	0.67611077	0.039539618	0.0896466	0.86902012	0.43382536	-0.13863105	0.84769306	0.43894007	0.15209363	0.88045537	0.42102179	-0.01301971	0.78770157	0.42923378	0.035289501	0.71574176	0.8013461	-0.12179416	0.75924186	0.80510572	0.2216171	0.79098649	0.84930225	-0.08271511	0.83564275	0.86047499	0.15650778	0.62963266	0.92932654	0.06759378	0.75618878	1.3353269	-0.13706039	0.78971127	1.3218704	0.22250084	0.69857808	1.3683635	0.049336722	0.68720031	1.0188255	-0.18496164	0.72635388	1.0157271	0.31555947	0.84742409	0.83120243	-0.20711585	0.92019647	0.86106742	0.32660959
352	1.404	0.60150846	0.11649669	-0.062397666	0.87104789	0.035846561	0.099258674	0.56657815	0.24059088	-0.084731166	0.73878571	0.061647752	0.13951302	0.59208984	0.24823525	-0.0035105779	0.74685409	0.080757573	0.050416451	0.50980945	0.28469271	-0.029628264	0.67615904	0.039641394	0.089651295	0.87943639	0.43758922	-0.13880012	0.8473876	0.43913133	0.15254709	0.89087488	0.42503555	-0.013395488	0.78843063	0.42949738	0.035279393	0.72189264	0.80371316	-0.1223654	0.76423042	0.8061735	0.22163698	0.79727495	0.85151895	-0.082714256	0.84087411	0.86186023	0.15648196	0.63520816	0.93082499	0.067536015	0.76089061	1.3371054	-0.1373129	0.79533413	1.3237659	0.22208666	0.70373371	1.3699936	0.049200152	0.6908106	1.0210631	-0.18487011	0.73404918	1.0173077	0.31594532	0.84921793	0.83217377	-0.20818995	0.9300639	0.86505909	0.32491416
353	1.408	0.6179993	0.11565305	-0.064348458	0.87101978	0.035842872	0.099281461	0.57991268	0.23884729	-0.085787894	0.73879915	0.061710881	0.13957391	0.60556385	0.24659801	-0.0045649081	0.7468059	0.080880896	0.050511192	0.5220562	0.28145973	-0.030474784	0.67627371	0.039773558	0.089638399	0.88976331	0.44131589	-0.13898079	0.84706607	0.43932235	0.15299749	0.90115204	0.42899147	-0.013743158	0.78927793	0.42989279	0.035314695	0.72827526	0.80603714	-0.12286692	0.76921065	0.80713682	0.22166526	0.80365981	0.85367811	-0.082745205	0.84609482	0.86316526	0.15645236	0.64094604	0.93225849	0.067845077	0.76560093	1.3388273	-0.1375668	0.80095447	1.3256043	0.22167397	0.70887502	1.3715593	0.049061529	0.69443766	1.0232358	-0.18477845	0.74172721	1.0188115	0.31629307	0.85101715	0.83309656	-0.20925383	0.93986358	0.86900596	0.32317244
354	1.412	0.63452648	0.11471379	-0.06629124	0.87100596	0.035836751	0.099306098	0.59335446	0.23689061	-0.086904072	0.73886167	0.061738822	0.13961168	0.61918894	0.24479865	-0.0057216784	0.74676674	0.081002248	0.050620259	0.53438756	0.27795829	-0.031352665	0.67636742	0.039917143	0.089647894	0.89974091	0.4450367	-0.13932503	0.84673924	0.43951027	0.15344107	0.91120076	0.43286092	-0.014115778	0.78989571	0.43052044	0.035409563	0.73488229	0.80829638	-0.12328319	0.77415973	0.80800745	0.22155156	0.80999228	0.85575667	-0.082780361	0.85133842	0.86439423	0.15640167	0.64676056	0.93362226	0.068336649	0.77031638	1.3404817	-0.13781344	0.80656431	1.327379	0.221255	0.71400889	1.3730524	0.048932462	0.69807517	1.0253391	-0.18468331	0.74939132	1.0202462	0.3166063	0.85281709	0.83396363	-0.21030742	0.94958793	0.87289994	0.3213606
355	1.416	0.65111479	0.11371921	-0.068233493	0.8710074	0.03582663	0.099323676	0.60688616	0.23474093	-0.088055056	0.73899486	0.061732146	0.1396152	0.6329337	0.24281949	-0.0069452718	0.74674953	0.081144552	0.050752051	0.54681697	0.27420661	-0.032276124	0.6763465	0.040036567	0.089692929	0.90931833	0.44872423	-0.13983128	0.84641772	0.43969227	0.15387414	0.92100815	0.43664086	-0.014505061	0.79022759	0.43126091	0.035525961	0.74157952	0.81047847	-0.12364181	0.77906543	0.80879191	0.22131652	0.81621092	0.85774562	-0.082807814	0.85667463	0.8655525	0.15630475	0.65250192	0.93490738	0.068701458	0.77502929	1.342056	-0.13805032	0.81215676	1.3290741	0.22082267	0.71913842	1.374463	0.048815959	0.70172082	1.0273683	-0.18457722	0.75706431	1.0216296	0.3169035	0.85462144	0.83477212	-0.21135278	0.95923235	0.87673235	0.31946386
356	1.42	0.66775714	0.11266182	-0.070161104	0.87101807	0.035809614	0.099333889	0.62049559	0.23241298	-0.089218456	0.7391726	0.061718032	0.13959728	0.64673998	0.240643	-0.0081932044	0.74679501	0.08131504	0.05088778	0.55936856	0.27021148	-0.033261361	0.67622818	0.04013286	0.089756249	0.91871919	0.45231074	-0.14034157	0.84611195	0.43986556	0.15429299	0.93067538	0.44035756	-0.014845774	0.79041613	0.43191525	0.035611147	0.74837986	0.81256879	-0.12390662	0.78392722	0.80948637	0.22102862	0.82235027	0.85965191	-0.082835962	0.86216684	0.86664296	0.15614629	0.65809847	0.93610937	0.068773797	0.77973151	1.3435411	-0.13828127	0.81773215	1.3306787	0.22037724	0.72426099	1.3757876	0.04870456	0.70538926	1.0293204	-0.18446187	0.76475574	1.0229675	0.3171959	0.85644169	0.83551715	-0.2123882	0.96879016	0.88049489	0.31753583
357	1.424	0.68441908	0.11147562	-0.072051125	0.87103532	0.035783262	0.099334286	0.63418291	0.22991105	-0.090392852	0.73932593	0.061734144	0.13958967	0.6604919	0.23828531	-0.0094220216	0.74692497	0.081500574	0.050986936	0.5720909	0.2659656	-0.034328752	0.67615425	0.040260547	0.089810036	0.92823025	0.45574089	-0.14069709	0.84583234	0.44002735	0.15469397	0.94028508	0.44402541	-0.015097712	0.79060706	0.43236337	0.035630674	0.75541135	0.81454321	-0.12401069	0.78875521	0.81008499	0.22072219	0.82846616	0.86148407	-0.082877626	0.86777273	0.86766555	0.15595114	0.66359142	0.93723185	0.068611337	0.78441324	1.3449332	-0.13851021	0.82329414	1.3321928	0.21992415	0.72937466	1.3770285	0.048582888	0.70911095	1.0311975	-0.18435339	0.77245097	1.0242495	0.31747789	0.85829015	0.83619947	-0.21341046	0.97826929	0.88418792	0.31567271
358	1.428	0.70113585	0.11011569	-0.073918783	0.87106442	0.035750642	0.099318262	0.64794709	0.22724033	-0.091579899	0.7394068	0.061793703	0.13961054	0.67414554	0.23576944	-0.010620872	0.74709742	0.081678243	0.051023347	0.58500871	0.26147094	-0.035482073	0.67621378	0.040460172	0.089844792	0.9379156	0.4590089	-0.14087386	0.8455893	0.44017487	0.15507338	0.94980834	0.44761661	-0.01528661	0.79080411	0.43262433	0.035585873	0.76257394	0.81638318	-0.12403163	0.79356635	0.81058645	0.22039786	0.83459272	0.86324392	-0.082940936	0.87329652	0.86860929	0.15579115	0.66904327	0.93828043	0.068336725	0.78906714	1.3462389	-0.13873349	0.82884193	1.3336222	0.21946872	0.73448325	1.3781835	0.048433115	0.71290833	1.0330044	-0.18427149	0.78013527	1.0254632	0.31773914	0.86016798	0.83683082	-0.21442562	0.98769895	0.88782154	0.31391238
